HIERARCHY
ROOT pelvis
{
  OFFSET 0 100 0
  CHANNELS 6 Xposition Yposition Zposition Zrotation Xrotation Yrotation
  JOINT pelvis_right_femur
  {
    OFFSET -10.78128 -3.44521 -0.5502486
    CHANNELS 3 Zrotation Xrotation Yrotation
    JOINT right_femur_tibia
    {
      OFFSET -0.8047443 -44.0398 -0.1307829
      CHANNELS 3 Zrotation Xrotation Yrotation
      JOINT right_tibia_foot
      {
        OFFSET 3.006224 -47.83518 -5
        CHANNELS 3 Zrotation Xrotation Yrotation
        End Site
        {
          OFFSET 0 -5 15
        }
      }
    }
  }
  JOINT pelvis_left_femur
  {
    OFFSET 10.78128 -3.44521 -0.5502486
    CHANNELS 3 Zrotation Xrotation Yrotation
    JOINT left_femur_tibia
    {
      OFFSET 0.8047443 -44.0398 -0.1307829
      CHANNELS 3 Zrotation Xrotation Yrotation
      JOINT left_tibia_foot
      {
        OFFSET -4.370144 -48.10324 -4.275266
        CHANNELS 3 Zrotation Xrotation Yrotation
        End Site
        {
          OFFSET 0 -5 15
        }
      }
    }
  }
  JOINT pelvis_spine1
  {
    OFFSET 0 6.468898 -3.129235
    CHANNELS 3 Zrotation Xrotation Yrotation
    JOINT spine1
    {
      OFFSET 0 23.15396 4.99043
      CHANNELS 3 Zrotation Xrotation Yrotation
      JOINT spine2
      {
        OFFSET 0 20.79997 -5.064912
        CHANNELS 3 Zrotation Xrotation Yrotation
        JOINT neck
        {
          OFFSET 0 14.38658 9.616178
          CHANNELS 3 Zrotation Xrotation Yrotation
          End Site
          {
            OFFSET 0 20 0
          }
        }
      }
      JOINT right_manubrium
      {
        OFFSET -5.722621 16.35077 3.967754
        CHANNELS 3 Zrotation Xrotation Yrotation
        JOINT right_clavicle
        {
          OFFSET -13.16364 1.694482 -4.693211
          CHANNELS 3 Zrotation Xrotation Yrotation
          JOINT right_humerus
          {
            OFFSET -28.5034 -0.3100689 -2.792744
            CHANNELS 3 Zrotation Xrotation Yrotation
            JOINT right_radius
            {
              OFFSET -25.15693 0.02248979 -1.271978
              CHANNELS 3 Zrotation Xrotation Yrotation
              End Site
              {
                OFFSET -15 0 0
              }
            }
          }
        }
      }
      JOINT left_manubrium
      {
        OFFSET 5.722621 16.35077 3.967754
        CHANNELS 3 Zrotation Xrotation Yrotation
        JOINT left_clavicle
        {
          OFFSET 13.16364 1.694482 -4.693211
          CHANNELS 3 Zrotation Xrotation Yrotation
          JOINT left_humerus
          {
            OFFSET 29.39168 -1.063119 -2.237045
            CHANNELS 3 Zrotation Xrotation Yrotation
            JOINT left_radius
            {
              OFFSET 24.59957 -0.9528479 0.9047498
              CHANNELS 3 Zrotation Xrotation Yrotation
              End Site
              {
                OFFSET 15 -0 -0
              }
            }
          }
        }
      }
    }
  }
}
MOTION
Frames: 17
Frame Time: 0.0416666666667
0 103.5113 0 2.048232 0.2720701 0.1607981 3.255596 -13.13055 10.40429 -0 40.27217 -0 -7.873592 -16.81932 -2.937379 -8.139693 9.055469 -22.60254 -0 7.074595 -0 18.21692 -11.60706 29.1628 -5.409813 -5.049241 4.557425 2.93312 10.40836 -7.630735 1.432515 22.83034 5.640877 1.991373 -24.93351 9.357483 7.063049 -19.55414 12.13352 86.68564 39.64371 -18.52372 -0 0 13.30067 -6.152545 8.567897 5.354499 3.977964 -18.88382 -1.686022 -91.57253 22.72952 19.72214 0 0 -13.87106 14.97861 15.70019 -3.024573
0.1746192 103.8916 1.68432 1.528043 0.2740122 0.3223502 3.752011 -14.94481 10.30358 -0 40.76835 -0 -7.587204 -15.46182 -2.882269 -7.792886 8.846556 -22.12431 -0 7.062617 -0 16.99196 -12.41817 28.73369 -4.815603 -4.71117 4.660128 2.843248 10.53607 -7.758141 1.34907 22.42642 5.931614 2.292511 -25.06041 9.310534 7.005546 -19.76899 12.19043 86.40189 38.81634 -18.44084 -0 0 13.93246 -6.612421 8.550625 5.295032 4.569623 -19.32438 -1.602255 -91.71961 21.91266 20.106 0 0 -14.01206 15.16832 15.48563 -3.111647
0.4915775 103.5573 3.731387 -0.115568 0.4528402 0.3376694 5.121493 -22.77156 9.35654 -0 34.31244 -0 -5.403773 -12.38965 -3.780911 -6.011305 10.39328 -20.90943 -0 5.180535 -0 6.873832 -19.2298 24.5988 -2.914338 -3.055944 4.591286 2.741602 9.825074 -8.702854 1.208021 20.97754 6.814961 3.303554 -25.0484 8.843958 6.345272 -20.10208 11.4905 85.63659 35.41705 -20.08225 -0 0 16.47058 -8.240832 9.017803 5.152059 6.507504 -20.44927 -1.393286 -93.40372 26.7597 22.14334 0 0 -17.92721 5.810112 15.77079 7.841874
0.7513338 103.0968 5.771386 -0.5866648 1.064534 0.2629209 5.933289 -25.21918 9.449554 -0 31.64105 -0 -5.875136 -12.52178 -3.546597 -5.597699 11.26081 -21.51726 -0 5.28196 -0 5.344024 -20.7894 24.32017 -2.517779 -2.805795 4.533539 2.715996 9.195473 -8.522333 1.49278 20.89068 6.816498 3.611164 -25.44104 9.056423 6.223336 -19.79437 11.15764 85.4115 35.23663 -20.15707 -0 0 16.8037 -7.156601 8.416169 4.153954 7.12082 -20.49429 -0.9872746 -94.36694 27.91941 22.64128 0 0 -17.82666 5.374428 16.80753 8.343623
1.03512 102.147 8.796275 -0.8395373 1.495619 0.3711712 5.335595 -29.85342 6.926762 -0 24.25059 -0 -4.997604 -6.780536 -3.954311 -5.152416 11.79745 -17.50629 -0 5.961941 -0 1.751701 -22.86935 19.67801 -2.460689 -1.648088 4.041806 2.868071 9.318205 -9.11346 1.30032 20.08143 7.390393 3.743175 -24.80892 8.930616 5.684888 -18.77666 11.05686 86.28804 34.44415 -21.439 -0 0 15.3707 -11.52541 11.37235 6.231017 7.627173 -21.86663 -1.379192 -91.62064 27.17657 19.40667 0 0 -21.25128 3.484845 14.96049 10.5436
1.302847 100.8774 12.51246 -0.7561318 1.637086 0.5947741 4.596333 -32.01311 5.105478 -0 18.59406 -0 -4.518705 -4.051092 -4.26326 -5.12146 12.59759 -14.90147 -0 7.026646 -0 0.673789 -23.65532 17.1497 -2.697754 -1.107263 3.714964 3.206754 9.368624 -9.435276 1.20459 19.68545 7.521616 3.61893 -24.57691 8.822762 5.119271 -17.96926 11.02258 86.885 33.20256 -22.12911 -0 0 13.82062 -13.70532 12.40405 7.458761 7.808487 -22.59115 -1.571898 -89.46752 25.35991 16.52998 0 0 -22.73517 4.065755 13.53956 9.531414
1.519828 99.3141 17.11936 -0.3132358 1.343848 1.013075 3.258152 -32.91811 2.894141 -0 12.37528 -0 -3.637251 -1.665089 -5.024315 -5.333346 13.97211 -12.0245 -0 8.956173 -0 -0.5691969 -23.96684 14.24677 -3.083996 -0.6894094 3.341416 3.548282 9.420705 -9.757717 1.071232 19.45603 7.548038 3.355816 -24.00292 8.534209 4.354812 -16.89752 10.99477 87.88111 31.28341 -23.21755 -0 0 11.38479 -15.989 13.22925 8.918281 7.685988 -23.23371 -2.121948 -86.79653 23.52408 12.92038 0 0 -24.96463 4.234999 11.52819 8.991973
1.692211 97.71861 22.45125 0.05293554 0.9424231 1.616384 2.464606 -32.48526 1.651804 -0 8.522087 -0 -3.076576 -0.723863 -5.752749 -5.558009 15.43047 -10.33406 -0 11.47218 -0 -1.503793 -23.62508 12.42044 -3.25059 -0.5817096 3.065408 3.848331 9.397727 -9.932818 0.9846971 19.35536 7.471939 3.175438 -23.81053 8.224731 3.719448 -16.04599 11.02049 88.69186 29.18609 -24.11633 -0 0 9.077159 -16.6716 12.95416 9.540779 7.419401 -23.49295 -2.575712 -85.04727 22.07562 10.39218 0 0 -26.35962 4.69628 9.962594 8.214573
1.812326 96.34254 28.34123 0.1370725 0.5169397 2.339343 2.498715 -31.20394 1.608428 -0 7.60159 -0 -2.881097 -0.6543947 -6.527821 -5.49436 16.77985 -9.751646 -0 14.56056 -0 -2.872012 -22.49777 11.31093 -2.968252 -0.6625442 2.815682 3.963527 9.313901 -9.969515 0.9811249 19.32451 7.329289 3.133141 -23.80363 7.886227 3.34577 -15.36678 11.04652 89.33396 27.43648 -24.84484 -0 0 7.167334 -16.13776 12.10643 9.465502 7.053112 -23.38173 -2.948927 -84.1342 21.71877 9.066126 0 0 -27.1072 4.709051 8.953522 8.304279
1.88863 95.4144 34.49501 -0.3540858 0.4871494 3.033166 3.633221 -30.01033 2.73108 -0 9.445881 -0 -3.433712 -1.219232 -6.926967 -4.904513 17.54494 -10.34295 -0 17.97473 -0 -4.734246 -20.70525 10.74059 -2.140141 -0.7768958 2.549767 3.932123 9.068905 -9.842081 1.074255 19.33581 7.161451 3.221659 -24.19111 7.674349 3.39747 -14.9556 11.04846 89.59304 26.84329 -25.1326 -0 0 6.257432 -14.54273 11.04801 8.791521 6.608904 -22.84861 -3.032757 -84.43318 22.88278 9.499383 0 0 -26.71354 4.133032 8.959097 9.45345
1.911078 94.93916 40.69301 -1.132165 0.5331694 3.551801 5.12681 -28.90604 4.062927 -0 12.28695 -0 -4.516581 -2.368387 -7.021016 -4.026094 17.65471 -11.31658 -0 22.11275 -0 -6.751493 -18.47828 10.26517 -1.111504 -0.7420262 2.237688 3.831732 8.592879 -9.512988 1.26436 19.6831 6.870085 3.162994 -24.54216 7.635451 3.534933 -14.57993 10.96793 89.68843 27.02336 -24.95611 -0 0 5.920982 -12.70741 10.12576 7.96776 5.961732 -21.97953 -2.959187 -85.39372 25.2012 10.76142 0 0 -25.49715 3.019858 9.79242 11.38225
1.86504 94.84606 46.84226 -1.759162 0.2466633 3.816448 6.254775 -27.31851 4.851079 -0 14.65995 -0 -5.760962 -4.076664 -6.984441 -3.261165 17.07395 -12.06437 -0 27.44603 -0 -8.401858 -16.15938 9.856268 -0.2856725 -0.5191689 1.96264 3.733346 7.96356 -8.990757 1.525782 20.50517 6.442998 2.85345 -24.57391 7.73575 3.449634 -14.10788 10.83336 89.81486 27.23607 -24.40999 -0 0 5.543915 -11.19871 9.424765 7.290176 5.123752 -20.9648 -2.858752 -86.42282 27.79889 11.89129 0 0 -23.92826 1.803721 11.03129 13.29868
1.745436 95.10436 52.90993 -2.067899 -0.4229252 3.816928 6.868698 -24.87047 5.056798 -0 16.26028 -0 -6.904337 -6.044683 -6.911656 -2.766047 15.62442 -12.4398 -0 33.8682 -0 -9.539353 -13.9113 9.671294 0.2115158 -0.1723819 1.842067 3.628919 7.364512 -8.344532 1.818069 21.60342 5.953567 2.440139 -24.26992 7.859074 3.200622 -13.61698 10.713 89.88983 27.31948 -23.55589 -0 0 5.095713 -10.20579 8.978527 6.857159 4.26771 -19.96849 -2.746872 -87.33984 30.02721 12.70608 0 0 -22.24211 0.7508794 12.28952 14.793
1.56733 95.71075 58.86408 -2.104364 -1.239132 3.592619 7.123883 -21.56078 4.904319 -0 17.14415 -0 -7.849034 -7.919983 -6.708158 -2.525287 13.03577 -12.4754 -0 40.90585 -0 -10.22304 -11.75491 9.73286 0.4236794 0.227373 1.978929 3.494668 6.946769 -7.654232 2.073253 22.68042 5.511986 2.109617 -23.78669 7.910158 3.009008 -13.28179 10.67386 89.71542 27.54908 -22.41905 -0 0 4.88725 -9.766509 8.865006 6.707152 3.548975 -19.10815 -2.583133 -88.26357 31.56807 13.53427 0 0 -20.5527 -0.06032645 13.32273 15.81444
1.359778 96.61569 64.6646 -1.881599 -2.085844 3.197163 7.078126 -17.35496 4.500523 -0 17.24607 -0 -8.544673 -9.503391 -6.282724 -2.493983 9.053892 -12.15651 -0 48.01436 -0 -10.47802 -9.738682 10.058 0.3666837 0.6533592 2.444909 3.290397 6.795229 -6.947529 2.243892 23.58235 5.179452 1.956447 -23.17516 7.830385 2.975778 -13.22751 10.74494 89.16452 28.09605 -20.97359 -0 0 5.136922 -9.972392 9.130881 6.878628 3.061082 -18.46705 -2.368254 -89.21592 32.24515 14.53408 0 0 -18.96794 -0.5703949 14.00874 16.32663
1.164359 97.69492 70.27087 -1.385068 -2.913044 2.699819 6.728674 -12.22536 3.902167 -0 16.40221 -0 -8.937279 -10.64461 -5.560887 -2.576042 3.474243 -11.43491 -0 54.22075 -0 -10.27343 -8.008456 10.71116 0.0362333 1.08989 3.281311 2.959039 6.971644 -6.237373 2.289125 24.19743 5.001346 2.036297 -22.43507 7.578467 3.121223 -13.57588 10.9341 88.1405 29.04251 -19.15384 -0 0 6.031616 -10.98088 9.78592 7.425321 2.900609 -18.12875 -2.131186 -90.1044 31.86766 15.70687 0 0 -17.61956 -0.6654886 14.24859 16.19944
1.031122 98.72407 75.65901 -0.6449601 -3.683618 2.185593 6.096742 -6.306828 3.19105 -0 14.52312 -0 -8.990818 -11.30062 -4.521783 -2.554335 -3.637565 -10.26563 -0 57.82522 -0 -9.583329 -6.792655 11.79491 -0.5259434 1.511508 4.43529 2.438952 7.475451 -5.536579 2.184739 24.43584 4.996911 2.35229 -21.5664 7.147618 3.378567 -14.43472 11.21095 86.5909 30.35419 -16.86469 -0 0 7.733692 -12.89906 10.73246 8.370798 3.153874 -18.13692 -1.916224 -90.76342 30.32305 16.94493 0 0 -16.61126 -0.2123022 13.98717 15.26656
